<?xml version="1.0" ?>
<svg xmlns="http://www.w3.org/2000/svg" width="500" height="500">
  <style><![CDATA[
.background {
    fill: #000000;
}
]]></style>
  <style><![CDATA[
.task_title {
    font-family: Helvetica, sans-serif;
    fill:  rgb(255, 255, 255);
}
]]></style>
  <style><![CDATA[
.task_box {
    fill: #00000000;
    stroke: rgb(255, 255, 255);
    stroke-width: 0.2%;
    rx: 0.5%;
    ry: 0.5%;
}


]]></style>
  <style><![CDATA[
.task_text_io {
    font-family: Helvetica, sans-serif;
    fill:  rgb(255, 255, 255);
}
]]></style>
  <style><![CDATA[
.task_anchor_link {
    fill: rgb(176, 147, 255);
}

]]></style>
  <style><![CDATA[
.task_line {
  stroke: rgb(255, 255, 255);
  stroke-width: 1;
}
]]></style>
  <rect width="500" height="500" class="background"/>
  <g transform="translate(6,262)">
    <text x="37.5" y="2" text-anchor="middle" dominant-baseline="hanging" font-size="6px" class="task_title">pick_response_strong…</text>
    <rect x="0" y="0" width="75" height="70.0" class="task_box"/>
    <g transform="translate(0,13.0)">
      <g transform="translate(0,0)">
        <text x="5" y="0" text-anchor="start" dominant-baseline="middle" font-size="6px" class="task_text_io">how_decision</text>
        <circle cx="0" cy="0" r="2.0" class="task_anchor_link"/>
      </g>
      <g transform="translate(0,8)">
        <text x="5" y="0" text-anchor="start" dominant-baseline="middle" font-size="6px" class="task_text_io">defense_send</text>
        <circle cx="0" cy="0" r="2.0" class="task_anchor_link"/>
      </g>
      <g transform="translate(0,16)">
        <text x="5" y="0" text-anchor="start" dominant-baseline="middle" font-size="6px" class="task_text_io">allow_attorney_difficult</text>
        <circle cx="0" cy="0" r="2.0" class="task_anchor_link"/>
      </g>
      <g transform="translate(0,24)">
        <text x="5" y="0" text-anchor="start" dominant-baseline="middle" font-size="6px" class="task_text_io">group_read</text>
        <circle cx="0" cy="0" r="2.0" class="task_anchor_link"/>
      </g>
      <g transform="translate(0,32)">
        <text x="5" y="0" text-anchor="start" dominant-baseline="middle" font-size="6px" class="task_text_io">treatment</text>
        <circle cx="0" cy="0" r="2.0" class="task_anchor_link"/>
      </g>
      <g transform="translate(0,40)">
        <text x="5" y="0" text-anchor="start" dominant-baseline="middle" font-size="6px" class="task_text_io">door_health</text>
        <circle cx="0" cy="0" r="2.0" class="task_anchor_link"/>
      </g>
    </g>
    <g transform="translate(75.0,0) translate(0,64.0)">
      <g transform="translate(0,0)">
        <text x="-5" y="0" text-anchor="end" dominant-baseline="middle" font-size="6px" class="task_text_io">bed_friend</text>
        <circle cx="0" cy="0" r="2.0" class="task_anchor_link"/>
      </g>
    </g>
    <line x1="0" y1="8.0" x2="75.0" y2="8.0" class="task_line"/>
  </g>
  <g transform="translate(202,96)">
    <text x="37.5" y="2" text-anchor="middle" dominant-baseline="hanging" font-size="6px" class="task_title">perhaps</text>
    <rect x="0" y="0" width="75" height="38.0" class="task_box"/>
    <g transform="translate(0,13.0)">
      <g transform="translate(0,0)">
        <text x="5" y="0" text-anchor="start" dominant-baseline="middle" font-size="4.0px" class="task_text_io">site_since_role</text>
        <circle cx="0" cy="0" r="2.0" class="task_anchor_link"/>
      </g>
      <g transform="translate(0,8)">
        <text x="5" y="0" text-anchor="start" dominant-baseline="middle" font-size="4.0px" class="task_text_io">entire_carry_career</text>
        <circle cx="0" cy="0" r="2.0" class="task_anchor_link"/>
      </g>
      <g transform="translate(0,16)">
        <text x="5" y="0" text-anchor="start" dominant-baseline="middle" font-size="4.0px" class="task_text_io">respond_performance_Democrat</text>
        <circle cx="0" cy="0" r="2.0" class="task_anchor_link"/>
      </g>
    </g>
    <g transform="translate(75.0,0) translate(0,40.0)"/>
    <line x1="0" y1="8.0" x2="75.0" y2="8.0" class="task_line"/>
  </g>
  <g transform="translate(196,362)">
    <text x="37.5" y="2" text-anchor="middle" dominant-baseline="hanging" font-size="6px" class="task_title">age</text>
    <rect x="0" y="0" width="75" height="70.0" class="task_box"/>
    <g transform="translate(0,13.0)">
      <g transform="translate(0,0)">
        <text x="5" y="0" text-anchor="start" dominant-baseline="middle" font-size="5.0px" class="task_text_io">debate_improve</text>
        <circle cx="0" cy="0" r="2.0" class="task_anchor_link"/>
      </g>
      <g transform="translate(0,8)">
        <text x="5" y="0" text-anchor="start" dominant-baseline="middle" font-size="5.0px" class="task_text_io">our_ready_street_key</text>
        <circle cx="0" cy="0" r="2.0" class="task_anchor_link"/>
      </g>
      <g transform="translate(0,16)">
        <text x="5" y="0" text-anchor="start" dominant-baseline="middle" font-size="5.0px" class="task_text_io">fill_morning_hair</text>
        <circle cx="0" cy="0" r="2.0" class="task_anchor_link"/>
      </g>
      <g transform="translate(0,24)">
        <text x="5" y="0" text-anchor="start" dominant-baseline="middle" font-size="5.0px" class="task_text_io">any_get_somebody</text>
        <circle cx="0" cy="0" r="2.0" class="task_anchor_link"/>
      </g>
    </g>
    <g transform="translate(75.0,0) translate(0,48.0)">
      <g transform="translate(0,0)">
        <text x="-5" y="0" text-anchor="end" dominant-baseline="middle" font-size="5.0px" class="task_text_io">reason_need_machine</text>
        <circle cx="0" cy="0" r="2.0" class="task_anchor_link"/>
      </g>
      <g transform="translate(0,8)">
        <text x="-5" y="0" text-anchor="end" dominant-baseline="middle" font-size="5.0px" class="task_text_io">music_today</text>
        <circle cx="0" cy="0" r="2.0" class="task_anchor_link"/>
      </g>
      <g transform="translate(0,16)">
        <text x="-5" y="0" text-anchor="end" dominant-baseline="middle" font-size="5.0px" class="task_text_io">mention_across_face_tax</text>
        <circle cx="0" cy="0" r="2.0" class="task_anchor_link"/>
      </g>
    </g>
    <line x1="0" y1="8.0" x2="75.0" y2="8.0" class="task_line"/>
  </g>
  <g transform="translate(66,41)">
    <text x="37.5" y="2" text-anchor="middle" dominant-baseline="hanging" font-size="6px" class="task_title">question</text>
    <rect x="0" y="0" width="75" height="86.0" class="task_box"/>
    <g transform="translate(0,13.0)">
      <g transform="translate(0,0)">
        <text x="5" y="0" text-anchor="start" dominant-baseline="middle" font-size="4.0px" class="task_text_io">board_just_what_on</text>
        <circle cx="0" cy="0" r="2.0" class="task_anchor_link"/>
      </g>
      <g transform="translate(0,8)">
        <text x="5" y="0" text-anchor="start" dominant-baseline="middle" font-size="4.0px" class="task_text_io">hair_term_several</text>
        <circle cx="0" cy="0" r="2.0" class="task_anchor_link"/>
      </g>
      <g transform="translate(0,16)">
        <text x="5" y="0" text-anchor="start" dominant-baseline="middle" font-size="4.0px" class="task_text_io">in_message_apply_whose</text>
        <circle cx="0" cy="0" r="2.0" class="task_anchor_link"/>
      </g>
    </g>
    <g transform="translate(75.0,0) translate(0,40.0)">
      <g transform="translate(0,0)">
        <text x="-5" y="0" text-anchor="end" dominant-baseline="middle" font-size="4.0px" class="task_text_io">image_nearly_step_successful</text>
        <circle cx="0" cy="0" r="2.0" class="task_anchor_link"/>
      </g>
      <g transform="translate(0,8)">
        <text x="-5" y="0" text-anchor="end" dominant-baseline="middle" font-size="4.0px" class="task_text_io">paper_practice</text>
        <circle cx="0" cy="0" r="2.0" class="task_anchor_link"/>
      </g>
      <g transform="translate(0,16)">
        <text x="-5" y="0" text-anchor="end" dominant-baseline="middle" font-size="4.0px" class="task_text_io">research_produce</text>
        <circle cx="0" cy="0" r="2.0" class="task_anchor_link"/>
      </g>
      <g transform="translate(0,24)">
        <text x="-5" y="0" text-anchor="end" dominant-baseline="middle" font-size="4.0px" class="task_text_io">activity_director</text>
        <circle cx="0" cy="0" r="2.0" class="task_anchor_link"/>
      </g>
      <g transform="translate(0,32)">
        <text x="-5" y="0" text-anchor="end" dominant-baseline="middle" font-size="4.0px" class="task_text_io">wrong_relate</text>
        <circle cx="0" cy="0" r="2.0" class="task_anchor_link"/>
      </g>
      <g transform="translate(0,40)">
        <text x="-5" y="0" text-anchor="end" dominant-baseline="middle" font-size="4.0px" class="task_text_io">official_half_that_since</text>
        <circle cx="0" cy="0" r="2.0" class="task_anchor_link"/>
      </g>
    </g>
    <line x1="0" y1="8.0" x2="75.0" y2="8.0" class="task_line"/>
  </g>
</svg>
