<?xml version="1.0" ?>
<svg xmlns="http://www.w3.org/2000/svg" width="500" height="500">
  <style><![CDATA[
.background {
    fill: #000000;
}
]]></style>
  <style><![CDATA[
.task_title {
    font-family: Helvetica, sans-serif;
    fill:  rgb(255, 255, 255);
}
]]></style>
  <style><![CDATA[
.task_box {
    fill: #00000000;
    stroke: rgb(255, 255, 255);
    stroke-width: 0.2%;
    rx: 0.5%;
    ry: 0.5%;
}


]]></style>
  <style><![CDATA[
.task_text_io {
    font-family: Helvetica, sans-serif;
    fill:  rgb(255, 255, 255);
}
]]></style>
  <style><![CDATA[
.task_anchor_link {
    fill: rgb(176, 147, 255);
}

]]></style>
  <style><![CDATA[
.task_line {
  stroke: rgb(255, 255, 255);
  stroke-width: 1;
}
]]></style>
  <rect width="500" height="500" class="background"/>
  <g transform="translate(325,255)">
    <text x="37.5" y="2" text-anchor="middle" dominant-baseline="hanging" font-size="6px" class="task_title">task_everyone_total</text>
    <rect x="0" y="0" width="75" height="110.0" class="task_box"/>
    <g transform="translate(0,13.0)">
      <g transform="translate(0,0)">
        <text x="5" y="0" text-anchor="start" dominant-baseline="middle" font-size="4.0px" class="task_text_io">physical_fund</text>
        <circle cx="0" cy="0" r="2.0" class="task_anchor_link"/>
      </g>
      <g transform="translate(0,8)">
        <text x="5" y="0" text-anchor="start" dominant-baseline="middle" font-size="4.0px" class="task_text_io">participant_have_kitchen</text>
        <circle cx="0" cy="0" r="2.0" class="task_anchor_link"/>
      </g>
      <g transform="translate(0,16)">
        <text x="5" y="0" text-anchor="start" dominant-baseline="middle" font-size="4.0px" class="task_text_io">look_high</text>
        <circle cx="0" cy="0" r="2.0" class="task_anchor_link"/>
      </g>
      <g transform="translate(0,24)">
        <text x="5" y="0" text-anchor="start" dominant-baseline="middle" font-size="4.0px" class="task_text_io">future_situation_industry</text>
        <circle cx="0" cy="0" r="2.0" class="task_anchor_link"/>
      </g>
      <g transform="translate(0,32)">
        <text x="5" y="0" text-anchor="start" dominant-baseline="middle" font-size="4.0px" class="task_text_io">office_big</text>
        <circle cx="0" cy="0" r="2.0" class="task_anchor_link"/>
      </g>
      <g transform="translate(0,40)">
        <text x="5" y="0" text-anchor="start" dominant-baseline="middle" font-size="4.0px" class="task_text_io"/>
        <circle cx="0" cy="0" r="2.0" class="task_anchor_link"/>
      </g>
      <g transform="translate(0,48)">
        <text x="5" y="0" text-anchor="start" dominant-baseline="middle" font-size="4.0px" class="task_text_io">age_control_national</text>
        <circle cx="0" cy="0" r="2.0" class="task_anchor_link"/>
      </g>
      <g transform="translate(0,56)">
        <text x="5" y="0" text-anchor="start" dominant-baseline="middle" font-size="4.0px" class="task_text_io">hand_before_support</text>
        <circle cx="0" cy="0" r="2.0" class="task_anchor_link"/>
      </g>
    </g>
    <g transform="translate(75.0,0) translate(0,80.0)">
      <g transform="translate(0,0)">
        <text x="-5" y="0" text-anchor="end" dominant-baseline="middle" font-size="4.0px" class="task_text_io">Congress_environment_song</text>
        <circle cx="0" cy="0" r="2.0" class="task_anchor_link"/>
      </g>
      <g transform="translate(0,8)">
        <text x="-5" y="0" text-anchor="end" dominant-baseline="middle" font-size="4.0px" class="task_text_io">collection</text>
        <circle cx="0" cy="0" r="2.0" class="task_anchor_link"/>
      </g>
      <g transform="translate(0,16)">
        <text x="-5" y="0" text-anchor="end" dominant-baseline="middle" font-size="4.0px" class="task_text_io">money_letter</text>
        <circle cx="0" cy="0" r="2.0" class="task_anchor_link"/>
      </g>
      <g transform="translate(0,24)">
        <text x="-5" y="0" text-anchor="end" dominant-baseline="middle" font-size="4.0px" class="task_text_io">bad_perhaps_young_crime_fall</text>
        <circle cx="0" cy="0" r="2.0" class="task_anchor_link"/>
      </g>
    </g>
    <line x1="0" y1="8.0" x2="75.0" y2="8.0" class="task_line"/>
  </g>
  <g transform="translate(155,111)">
    <text x="37.5" y="2" text-anchor="middle" dominant-baseline="hanging" font-size="6px" class="task_title">clearly</text>
    <rect x="0" y="0" width="75" height="54.0" class="task_box"/>
    <g transform="translate(0,13.0)">
      <g transform="translate(0,0)">
        <text x="5" y="0" text-anchor="start" dominant-baseline="middle" font-size="4.0px" class="task_text_io">until_identify_four_thus</text>
        <circle cx="0" cy="0" r="2.0" class="task_anchor_link"/>
      </g>
      <g transform="translate(0,8)">
        <text x="5" y="0" text-anchor="start" dominant-baseline="middle" font-size="4.0px" class="task_text_io">while_world_reach_ball</text>
        <circle cx="0" cy="0" r="2.0" class="task_anchor_link"/>
      </g>
      <g transform="translate(0,16)">
        <text x="5" y="0" text-anchor="start" dominant-baseline="middle" font-size="4.0px" class="task_text_io">artist_grow_he</text>
        <circle cx="0" cy="0" r="2.0" class="task_anchor_link"/>
      </g>
      <g transform="translate(0,24)">
        <text x="5" y="0" text-anchor="start" dominant-baseline="middle" font-size="4.0px" class="task_text_io">guy_treat_best_among</text>
        <circle cx="0" cy="0" r="2.0" class="task_anchor_link"/>
      </g>
    </g>
    <g transform="translate(75.0,0) translate(0,48.0)">
      <g transform="translate(0,0)">
        <text x="-5" y="0" text-anchor="end" dominant-baseline="middle" font-size="4.0px" class="task_text_io">appear_around_fight_executive</text>
        <circle cx="0" cy="0" r="2.0" class="task_anchor_link"/>
      </g>
    </g>
    <line x1="0" y1="8.0" x2="75.0" y2="8.0" class="task_line"/>
  </g>
</svg>
