<?xml version="1.0" ?>
<svg xmlns="http://www.w3.org/2000/svg" width="500" height="500">
  <style><![CDATA[
.background {
    fill: #000000;
}
]]></style>
  <style><![CDATA[
.task_title {
    font-family: Helvetica, sans-serif;
    fill:  rgb(255, 255, 255);
}
]]></style>
  <style><![CDATA[
.task_box {
    fill: #00000000;
    stroke: rgb(255, 255, 255);
    stroke-width: 0.2%;
    rx: 0.5%;
    ry: 0.5%;
}


]]></style>
  <style><![CDATA[
.task_text_io {
    font-family: Helvetica, sans-serif;
    fill:  rgb(255, 255, 255);
}
]]></style>
  <style><![CDATA[
.task_anchor_link {
    fill: rgb(176, 147, 255);
}

]]></style>
  <style><![CDATA[
.task_line {
  stroke: rgb(255, 255, 255);
  stroke-width: 1;
}
]]></style>
  <rect width="500" height="500" class="background"/>
  <g transform="translate(13,87)">
    <text x="37.5" y="3" text-anchor="middle" dominant-baseline="hanging" font-size="6px" class="task_title">raise_fear</text>
    <rect x="0" y="0" width="75" height="87.0" class="task_box"/>
    <g transform="translate(0,12.0)"/>
    <g transform="translate(75.0,0) translate(0,15.0)">
      <g transform="translate(0,0)">
        <text x="-5" y="0" text-anchor="end" dominant-baseline="middle" font-size="4.0px" class="task_text_io">wife_myself_act</text>
        <circle cx="0" cy="0" r="2.5" class="task_anchor_link"/>
      </g>
      <g transform="translate(0,8)">
        <text x="-5" y="0" text-anchor="end" dominant-baseline="middle" font-size="4.0px" class="task_text_io">up_support_if</text>
        <circle cx="0" cy="0" r="2.5" class="task_anchor_link"/>
      </g>
      <g transform="translate(0,16)">
        <text x="-5" y="0" text-anchor="end" dominant-baseline="middle" font-size="4.0px" class="task_text_io">skin_sport_performance</text>
        <circle cx="0" cy="0" r="2.5" class="task_anchor_link"/>
      </g>
      <g transform="translate(0,24)">
        <text x="-5" y="0" text-anchor="end" dominant-baseline="middle" font-size="4.0px" class="task_text_io">energy_quality_back</text>
        <circle cx="0" cy="0" r="2.5" class="task_anchor_link"/>
      </g>
      <g transform="translate(0,32)">
        <text x="-5" y="0" text-anchor="end" dominant-baseline="middle" font-size="4.0px" class="task_text_io">admit_group_tonight</text>
        <circle cx="0" cy="0" r="2.5" class="task_anchor_link"/>
      </g>
      <g transform="translate(0,40)">
        <text x="-5" y="0" text-anchor="end" dominant-baseline="middle" font-size="4.0px" class="task_text_io">organization_way_must_instead_…</text>
        <circle cx="0" cy="0" r="2.5" class="task_anchor_link"/>
      </g>
      <g transform="translate(0,48)">
        <text x="-5" y="0" text-anchor="end" dominant-baseline="middle" font-size="4.0px" class="task_text_io">shake_manager</text>
        <circle cx="0" cy="0" r="2.5" class="task_anchor_link"/>
      </g>
      <g transform="translate(0,56)">
        <text x="-5" y="0" text-anchor="end" dominant-baseline="middle" font-size="4.0px" class="task_text_io">road_room</text>
        <circle cx="0" cy="0" r="2.5" class="task_anchor_link"/>
      </g>
      <g transform="translate(0,64)">
        <text x="-5" y="0" text-anchor="end" dominant-baseline="middle" font-size="4.0px" class="task_text_io">role_environment_send_tax</text>
        <circle cx="0" cy="0" r="2.5" class="task_anchor_link"/>
      </g>
    </g>
    <line x1="0" y1="9.0" x2="75.0" y2="9.0" class="task_line"/>
  </g>
  <g transform="translate(114,387)">
    <text x="37.5" y="3" text-anchor="middle" dominant-baseline="hanging" font-size="6px" class="task_title">material_simple_play_fi…</text>
    <rect x="0" y="0" width="75" height="47.0" class="task_box"/>
    <g transform="translate(0,12.0)">
      <g transform="translate(0,0)">
        <text x="5" y="0" text-anchor="start" dominant-baseline="middle" font-size="4.0px" class="task_text_io">executive</text>
        <circle cx="0" cy="0" r="2.5" class="task_anchor_link"/>
      </g>
    </g>
    <g transform="translate(75.0,0) translate(0,23.0)">
      <g transform="translate(0,0)">
        <text x="-5" y="0" text-anchor="end" dominant-baseline="middle" font-size="4.0px" class="task_text_io">on_knowledge</text>
        <circle cx="0" cy="0" r="2.5" class="task_anchor_link"/>
      </g>
      <g transform="translate(0,8)">
        <text x="-5" y="0" text-anchor="end" dominant-baseline="middle" font-size="4.0px" class="task_text_io"/>
        <circle cx="0" cy="0" r="2.5" class="task_anchor_link"/>
      </g>
      <g transform="translate(0,16)">
        <text x="-5" y="0" text-anchor="end" dominant-baseline="middle" font-size="4.0px" class="task_text_io">national_charge_painting_Americ…</text>
        <circle cx="0" cy="0" r="2.5" class="task_anchor_link"/>
      </g>
    </g>
    <line x1="0" y1="9.0" x2="75.0" y2="9.0" class="task_line"/>
  </g>
  <g transform="translate(347,174)">
    <text x="37.5" y="3" text-anchor="middle" dominant-baseline="hanging" font-size="6px" class="task_title">unit_continue_wife_incl…</text>
    <rect x="0" y="0" width="75" height="71.0" class="task_box"/>
    <g transform="translate(0,12.0)">
      <g transform="translate(0,0)">
        <text x="5" y="0" text-anchor="start" dominant-baseline="middle" font-size="5.0px" class="task_text_io">cold_term_entire</text>
        <circle cx="0" cy="0" r="2.5" class="task_anchor_link"/>
      </g>
      <g transform="translate(0,8)">
        <text x="5" y="0" text-anchor="start" dominant-baseline="middle" font-size="5.0px" class="task_text_io">TV_although_six</text>
        <circle cx="0" cy="0" r="2.5" class="task_anchor_link"/>
      </g>
      <g transform="translate(0,16)">
        <text x="5" y="0" text-anchor="start" dominant-baseline="middle" font-size="5.0px" class="task_text_io">strong_tell_evidence_during</text>
        <circle cx="0" cy="0" r="2.5" class="task_anchor_link"/>
      </g>
    </g>
    <g transform="translate(75.0,0) translate(0,39.0)">
      <g transform="translate(0,0)">
        <text x="-5" y="0" text-anchor="end" dominant-baseline="middle" font-size="5.0px" class="task_text_io">recently_fill</text>
        <circle cx="0" cy="0" r="2.5" class="task_anchor_link"/>
      </g>
      <g transform="translate(0,8)">
        <text x="-5" y="0" text-anchor="end" dominant-baseline="middle" font-size="5.0px" class="task_text_io">easy_off_class_time</text>
        <circle cx="0" cy="0" r="2.5" class="task_anchor_link"/>
      </g>
      <g transform="translate(0,16)">
        <text x="-5" y="0" text-anchor="end" dominant-baseline="middle" font-size="5.0px" class="task_text_io">cover_shoulder_which</text>
        <circle cx="0" cy="0" r="2.5" class="task_anchor_link"/>
      </g>
      <g transform="translate(0,24)">
        <text x="-5" y="0" text-anchor="end" dominant-baseline="middle" font-size="5.0px" class="task_text_io">long_difficult</text>
        <circle cx="0" cy="0" r="2.5" class="task_anchor_link"/>
      </g>
    </g>
    <line x1="0" y1="9.0" x2="75.0" y2="9.0" class="task_line"/>
  </g>
  <rect width="500" height="500" class="background"/>
  <g transform="translate(13,87)">
    <text x="37.5" y="3" text-anchor="middle" dominant-baseline="hanging" font-size="6px" class="task_title">raise_fear</text>
    <rect x="0" y="0" width="75" height="87.0" class="task_box"/>
    <g transform="translate(0,12.0)"/>
    <g transform="translate(75.0,0) translate(0,15.0)">
      <g transform="translate(0,0)">
        <text x="-5" y="0" text-anchor="end" dominant-baseline="middle" font-size="4.0px" class="task_text_io">wife_myself_act</text>
        <circle cx="0" cy="0" r="2.5" class="task_anchor_link"/>
      </g>
      <g transform="translate(0,8)">
        <text x="-5" y="0" text-anchor="end" dominant-baseline="middle" font-size="4.0px" class="task_text_io">up_support_if</text>
        <circle cx="0" cy="0" r="2.5" class="task_anchor_link"/>
      </g>
      <g transform="translate(0,16)">
        <text x="-5" y="0" text-anchor="end" dominant-baseline="middle" font-size="4.0px" class="task_text_io">skin_sport_performance</text>
        <circle cx="0" cy="0" r="2.5" class="task_anchor_link"/>
      </g>
      <g transform="translate(0,24)">
        <text x="-5" y="0" text-anchor="end" dominant-baseline="middle" font-size="4.0px" class="task_text_io">energy_quality_back</text>
        <circle cx="0" cy="0" r="2.5" class="task_anchor_link"/>
      </g>
      <g transform="translate(0,32)">
        <text x="-5" y="0" text-anchor="end" dominant-baseline="middle" font-size="4.0px" class="task_text_io">admit_group_tonight</text>
        <circle cx="0" cy="0" r="2.5" class="task_anchor_link"/>
      </g>
      <g transform="translate(0,40)">
        <text x="-5" y="0" text-anchor="end" dominant-baseline="middle" font-size="4.0px" class="task_text_io">organization_way_must_instead_…</text>
        <circle cx="0" cy="0" r="2.5" class="task_anchor_link"/>
      </g>
      <g transform="translate(0,48)">
        <text x="-5" y="0" text-anchor="end" dominant-baseline="middle" font-size="4.0px" class="task_text_io">shake_manager</text>
        <circle cx="0" cy="0" r="2.5" class="task_anchor_link"/>
      </g>
      <g transform="translate(0,56)">
        <text x="-5" y="0" text-anchor="end" dominant-baseline="middle" font-size="4.0px" class="task_text_io">road_room</text>
        <circle cx="0" cy="0" r="2.5" class="task_anchor_link"/>
      </g>
      <g transform="translate(0,64)">
        <text x="-5" y="0" text-anchor="end" dominant-baseline="middle" font-size="4.0px" class="task_text_io">role_environment_send_tax</text>
        <circle cx="0" cy="0" r="2.5" class="task_anchor_link"/>
      </g>
    </g>
    <line x1="0" y1="9.0" x2="75.0" y2="9.0" class="task_line"/>
  </g>
  <g transform="translate(114,387)">
    <text x="37.5" y="3" text-anchor="middle" dominant-baseline="hanging" font-size="6px" class="task_title">material_simple_play_fi…</text>
    <rect x="0" y="0" width="75" height="47.0" class="task_box"/>
    <g transform="translate(0,12.0)">
      <g transform="translate(0,0)">
        <text x="5" y="0" text-anchor="start" dominant-baseline="middle" font-size="4.0px" class="task_text_io">executive</text>
        <circle cx="0" cy="0" r="2.5" class="task_anchor_link"/>
      </g>
    </g>
    <g transform="translate(75.0,0) translate(0,23.0)">
      <g transform="translate(0,0)">
        <text x="-5" y="0" text-anchor="end" dominant-baseline="middle" font-size="4.0px" class="task_text_io">on_knowledge</text>
        <circle cx="0" cy="0" r="2.5" class="task_anchor_link"/>
      </g>
      <g transform="translate(0,8)">
        <text x="-5" y="0" text-anchor="end" dominant-baseline="middle" font-size="4.0px" class="task_text_io"/>
        <circle cx="0" cy="0" r="2.5" class="task_anchor_link"/>
      </g>
      <g transform="translate(0,16)">
        <text x="-5" y="0" text-anchor="end" dominant-baseline="middle" font-size="4.0px" class="task_text_io">national_charge_painting_Americ…</text>
        <circle cx="0" cy="0" r="2.5" class="task_anchor_link"/>
      </g>
    </g>
    <line x1="0" y1="9.0" x2="75.0" y2="9.0" class="task_line"/>
  </g>
  <g transform="translate(347,174)">
    <text x="37.5" y="3" text-anchor="middle" dominant-baseline="hanging" font-size="6px" class="task_title">unit_continue_wife_incl…</text>
    <rect x="0" y="0" width="75" height="71.0" class="task_box"/>
    <g transform="translate(0,12.0)">
      <g transform="translate(0,0)">
        <text x="5" y="0" text-anchor="start" dominant-baseline="middle" font-size="5.0px" class="task_text_io">cold_term_entire</text>
        <circle cx="0" cy="0" r="2.5" class="task_anchor_link"/>
      </g>
      <g transform="translate(0,8)">
        <text x="5" y="0" text-anchor="start" dominant-baseline="middle" font-size="5.0px" class="task_text_io">TV_although_six</text>
        <circle cx="0" cy="0" r="2.5" class="task_anchor_link"/>
      </g>
      <g transform="translate(0,16)">
        <text x="5" y="0" text-anchor="start" dominant-baseline="middle" font-size="5.0px" class="task_text_io">strong_tell_evidence_during</text>
        <circle cx="0" cy="0" r="2.5" class="task_anchor_link"/>
      </g>
    </g>
    <g transform="translate(75.0,0) translate(0,39.0)">
      <g transform="translate(0,0)">
        <text x="-5" y="0" text-anchor="end" dominant-baseline="middle" font-size="5.0px" class="task_text_io">recently_fill</text>
        <circle cx="0" cy="0" r="2.5" class="task_anchor_link"/>
      </g>
      <g transform="translate(0,8)">
        <text x="-5" y="0" text-anchor="end" dominant-baseline="middle" font-size="5.0px" class="task_text_io">easy_off_class_time</text>
        <circle cx="0" cy="0" r="2.5" class="task_anchor_link"/>
      </g>
      <g transform="translate(0,16)">
        <text x="-5" y="0" text-anchor="end" dominant-baseline="middle" font-size="5.0px" class="task_text_io">cover_shoulder_which</text>
        <circle cx="0" cy="0" r="2.5" class="task_anchor_link"/>
      </g>
      <g transform="translate(0,24)">
        <text x="-5" y="0" text-anchor="end" dominant-baseline="middle" font-size="5.0px" class="task_text_io">long_difficult</text>
        <circle cx="0" cy="0" r="2.5" class="task_anchor_link"/>
      </g>
    </g>
    <line x1="0" y1="9.0" x2="75.0" y2="9.0" class="task_line"/>
  </g>
</svg>
